# xmcd CD database file
#
# Track frame offsets:
#	150
#	12021
#	25871
#	41557
#	58093
#	78586
#	91587
#	112926
#	130592
#	151266
#	170902
#	187565
#	198612
#	212600
#	228754
#	246667
#	261534
#	279984
#	295926
#	307322
#	323376
#	340501
#
# Disc length: 4720 seconds
#
# Revision: 0
# Processed by: cddbd v1.4PL0 Copyright (c) Steve Scherf et al.
# Submitted via: Feurio! 1.66 - http://www.feurio.com
#
DISCID=29126e16
DTITLE=Waylon Jennings - Sweet mother Texas - Hangin' tough/ Waylon and Company
DYEAR=2001
DGENRE=Country
TTITLE0=I'm on fire
TTITLE1=Me and them brothers of mine
TTITLE2=I take my comfort in you
TTITLE3=Looking for Suzanne
TTITLE4=Be careful who you love
TTITLE5=Sweet mother Texas
TTITLE6=Living legend
TTITLE7=Hangin' On
TTITLE8=Baker street
TTITLE9=I can't help the way I don't feel about you
TTITLE10=Rose in Paradise
TTITLE11=Crying don't even come close
TTITLE12=Chevy Van
TTITLE13=Fallin' out
TTITLE14=Deep in the west
TTITLE15=Between fathers and sons
TTITLE16=The crown prince
TTITLE17=Defying gravity (Executioner's song)
TTITLE18=Hold on, I'm comin'
TTITLE19=Leave them boys alone
TTITLE20=Spanish Johnny
TTITLE21=So you want to be a cowboy singer
EXTD=1-8=Sweet mother Texas\r\n9-18=Hangin' tough\r\n19-22=Waylon and Company
EXTT0=
EXTT1=
EXTT2=
EXTT3=
EXTT4=
EXTT5=
EXTT6=
EXTT7=
EXTT8=
EXTT9=
EXTT10=
EXTT11=
EXTT12=
EXTT13=
EXTT14=
EXTT15=
EXTT16=
EXTT17=
EXTT18=
EXTT19=
EXTT20=
EXTT21=
PLAYORDER=
